/* XPM */
static char * gphpedit_xpm[] = {
"32 32 327 2",
"  	c None",
". 	c #C8C8C8",
"+ 	c #5B5B5B",
"@ 	c #F5F5F5",
"# 	c #8B8B8B",
"$ 	c #777777",
"% 	c #DDDDDD",
"& 	c #AFAFAF",
"* 	c #C7C7C7",
"= 	c #999999",
"- 	c #A8A8A8",
"; 	c #E4E4E4",
"> 	c #595959",
", 	c #D2D2D2",
"' 	c #A3A3A3",
") 	c #A7A7A7",
"! 	c #919191",
"~ 	c #C5C5C5",
"{ 	c #A1A1A1",
"] 	c #4B4B4B",
"^ 	c #BCBCBC",
"/ 	c #BFBFBF",
"( 	c #797979",
"_ 	c #717171",
": 	c #A5A5A5",
"< 	c #828282",
"[ 	c #BEBEBE",
"} 	c #C1C1C1",
"| 	c #545454",
"1 	c #D8D8D8",
"2 	c #818181",
"3 	c #7C7C7C",
"4 	c #757575",
"5 	c #B6B6B6",
"6 	c #7F7F7F",
"7 	c #5D5D5D",
"8 	c #A9A9A9",
"9 	c #E1E1E1",
"0 	c #E5E5E5",
"a 	c #DEDEDE",
"b 	c #252525",
"c 	c #373737",
"d 	c #848484",
"e 	c #9D9D9D",
"f 	c #636363",
"g 	c #B8B8B8",
"h 	c #C3C3C3",
"i 	c #B7B7B7",
"j 	c #C9C9C9",
"k 	c #DFDFDF",
"l 	c #DADADA",
"m 	c #E0E0E0",
"n 	c #666666",
"o 	c #656565",
"p 	c #767676",
"q 	c #9B9B9B",
"r 	c #A0A0A0",
"s 	c #AEAEAE",
"t 	c #CCCCCC",
"u 	c #E3E3E3",
"v 	c #D7D7D7",
"w 	c #D0D0D0",
"x 	c #D6D6D6",
"y 	c #DBDBDB",
"z 	c #282828",
"A 	c #959595",
"B 	c #6C6C6C",
"C 	c #E2E2E2",
"D 	c #EBEBEB",
"E 	c #ECECEC",
"F 	c #E9E9E9",
"G 	c #DCDCDC",
"H 	c #D9D9D9",
"I 	c #D5D5D5",
"J 	c #D3D3D3",
"K 	c #1E1E1E",
"L 	c #7B7B7B",
"M 	c #9E9E9E",
"N 	c #E6E6E6",
"O 	c #F0F0F0",
"P 	c #EEEEEE",
"Q 	c #CFCFCF",
"R 	c #CDCDCD",
"S 	c #343434",
"T 	c #CBCBCB",
"U 	c #EAEAEA",
"V 	c #EDEDED",
"W 	c #E8E8E8",
"X 	c #CECECE",
"Y 	c #040404",
"Z 	c #2A2A2A",
"` 	c #A2A2A2",
" .	c #FAFAFA",
"..	c #F6F6F6",
"+.	c #F1F1F1",
"@.	c #E7E7E7",
"#.	c #D4D4D4",
"$.	c #D1D1D1",
"%.	c #BABABA",
"&.	c #090909",
"*.	c #535353",
"=.	c #ABABAB",
"-.	c #FCFCFC",
";.	c #F8F8F8",
">.	c #F3F3F3",
",.	c #BBBBBB",
"'.	c #C2C2C2",
").	c #101010",
"!.	c #505050",
"~.	c #C0C0C0",
"{.	c #F9F9F9",
"].	c #F4F4F4",
"^.	c #EFEFEF",
"/.	c #C6C6C6",
"(.	c #221D1C",
"_.	c #747474",
":.	c #F1EFF0",
"<.	c #D7D5DC",
"[.	c #C2C1CF",
"}.	c #AEAEC2",
"|.	c #A8AABE",
"1.	c #B1B4C3",
"2.	c #C5C6CB",
"3.	c #CACACA",
"4.	c #B7B5B6",
"5.	c #85868D",
"6.	c #989CB3",
"7.	c #99A0C4",
"8.	c #7D86B6",
"9.	c #6A76AC",
"0.	c #6A77AD",
"a.	c #6370A9",
"b.	c #5F6CA6",
"c.	c #5D6AA3",
"d.	c #616DA2",
"e.	c #757DA5",
"f.	c #898DA7",
"g.	c #A7A7B1",
"h.	c #B9B9BB",
"i.	c #B3B3B3",
"j.	c #999DBF",
"k.	c #818AB7",
"l.	c #6975AC",
"m.	c #5D6BA7",
"n.	c #5967A5",
"o.	c #5765A4",
"p.	c #626EA2",
"q.	c #535769",
"r.	c #6C769F",
"s.	c #5B6AA9",
"t.	c #5B69A6",
"u.	c #5A69A6",
"v.	c #5B69A4",
"w.	c #616CA0",
"x.	c #6C7396",
"y.	c #898A90",
"z.	c #B7B7B6",
"A.	c #FDFDFD",
"B.	c #757DAD",
"C.	c #606DA5",
"D.	c #606C9D",
"E.	c #5E6A9C",
"F.	c #626FA1",
"G.	c #6170AB",
"H.	c #5E678E",
"I.	c #111113",
"J.	c #697195",
"K.	c #6371AA",
"L.	c #6370AA",
"M.	c #616C9F",
"N.	c #6371AC",
"O.	c #5966A0",
"P.	c #5B617A",
"Q.	c #AEAEAF",
"R.	c #6772A7",
"S.	c #616FAC",
"T.	c #5A5F77",
"U.	c #202126",
"V.	c #2B2B2D",
"W.	c #212329",
"X.	c #4E5366",
"Y.	c #636983",
"Z.	c #0A0908",
"`.	c #282829",
" +	c #212227",
".+	c #4F5364",
"++	c #777D98",
"@+	c #1E2025",
"#+	c #292A2C",
"$+	c #212226",
"%+	c #3B3D4B",
"&+	c #5C6AA7",
"*+	c #65697E",
"=+	c #D9D9DA",
"-+	c #9A9A9A",
";+	c #3F3F3F",
">+	c #636D9C",
",+	c #5A68A7",
"'+	c #626FA9",
")+	c #333541",
"!+	c #414451",
"~+	c #7480B4",
"{+	c #575E77",
"]+	c #0C0B09",
"^+	c #4C4C4C",
"/+	c #35363C",
"(+	c #818CC0",
"_+	c #565B70",
":+	c #2D2E30",
"<+	c #65666B",
"[+	c #272931",
"}+	c #717DAC",
"|+	c #6A7295",
"1+	c #17181A",
"2+	c #555E82",
"3+	c #5E6DAC",
"4+	c #556299",
"5+	c #3F424A",
"6+	c #474747",
"7+	c #5E6A9E",
"8+	c #5B69A7",
"9+	c #6672A7",
"0+	c #272831",
"a+	c #555B77",
"b+	c #6272B8",
"c+	c #5C627E",
"d+	c #191816",
"e+	c #353535",
"f+	c #434657",
"g+	c #6474B6",
"h+	c #464B60",
"i+	c #3C3D41",
"j+	c #4A4B50",
"k+	c #3F4250",
"l+	c #6473B4",
"m+	c #6A739B",
"n+	c #161718",
"o+	c #5A648C",
"p+	c #5D6BAA",
"q+	c #5A68A4",
"r+	c #202436",
"s+	c #626C9C",
"t+	c #5B69A8",
"u+	c #5866A4",
"v+	c #626E99",
"w+	c #191A1D",
"x+	c #4C4E58",
"y+	c #555868",
"z+	c #222324",
"A+	c #646773",
"B+	c #21201F",
"C+	c #5A6079",
"D+	c #6270AB",
"E+	c #31333A",
"F+	c #55565B",
"G+	c #333337",
"H+	c #3A3B41",
"I+	c #5A5D6E",
"J+	c #29292C",
"K+	c #383B48",
"L+	c #6371AE",
"M+	c #5A68A5",
"N+	c #57659F",
"O+	c #222533",
"P+	c #5765A5",
"Q+	c #606889",
"R+	c #121111",
"S+	c #4D4F5F",
"T+	c #4B4F62",
"U+	c #5D6486",
"V+	c #7580AE",
"W+	c #54586B",
"X+	c #656F9B",
"Y+	c #606EA6",
"Z+	c #555A73",
"`+	c #7B7E8F",
" @	c #242426",
".@	c #424552",
"+@	c #4C5063",
"@@	c #545B7A",
"#@	c #626EA4",
"$@	c #5A68A6",
"%@	c #5E6DAD",
"&@	c #434D78",
"*@	c #626B94",
"=@	c #5E6BA7",
"-@	c #565B72",
";@	c #363638",
">@	c #6F7DBA",
",@	c #5C6CAE",
"'@	c #5766A6",
")@	c #5D6CAD",
"!@	c #5A69A7",
"~@	c #5B68A6",
"{@	c #5A69AD",
"]@	c #6D7391",
"^@	c #262626",
"/@	c #6774AB",
"(@	c #5E6DAF",
"_@	c #5967A7",
":@	c #5C6AA8",
"<@	c #45507E",
"[@	c #6C7398",
"}@	c #6A749D",
"|@	c #5C6AA9",
"1@	c #5B69A5",
"2@	c #6C77A8",
"3@	c #68719A",
"4@	c #5D6BA8",
"5@	c #5D6BAB",
"6@	c #56639B",
"7@	c #33395A",
"8@	c #616A99",
"9@	c #5C6AA2",
"0@	c #5C69A4",
"a@	c #5866A3",
"b@	c #5764A1",
"c@	c #586398",
"d@	c #545D89",
"e@	c #434861",
"f@	c #747895",
"g@	c #6B6E8C",
"h@	c #646887",
"i@	c #636683",
"j@	c #60637E",
"k@	c #686A7E",
"l@	c #696B7B",
"                                                                ",
"                                  .                             ",
"                                +   @                           ",
"                        # $ % &     *                           ",
"                  = - ; >     , ' ) ! ,                         ",
"              ~ { ]   ^ / ( _ : { < [ ; }                       ",
"            |   1 2 3 4 5 6 7 8 9 0 a a % ~                     ",
"          b c d - e f + g h i j ; ; k a l m                     ",
"        n d 6 o p q r s t l u 0 u k v w 1 x y                   ",
"      z A d A B { j C ; D E F 0 G l H H 1 I J v                 ",
"      K L M , l . I N O P F ; C C m G H , t Q R w               ",
"        S # T k u U V V U F W 0 9 k 1 X R t Q t T .             ",
"        Y Z ` N  ...+.O P U @.u l #., #.J $.R . ~ Q %.          ",
"          &.*.=.-.;.>.O E F k y H l H v J R h ,.'.h w           ",
"            ).!.~.{.].^.N m 9 m a G v w * './.. ~ } [ X         ",
"              (._.Q -.:.<.[.}.|.1.2.j t t R 3.* [ & i ~.X       ",
"              4.5.6.7.8.9.0.a.b.c.d.e.f.g.h.[ g i.^ ~.} H W     ",
"            j.k.l.m.n.o.p.q.r.s.t.t.u.v.w.x.y.z.} ~.Q C ;.A.    ",
"          B.n.C.D.E.F.G.H.I.J.p.K.L.D.E.M.N.O.P.Q.D ;.].I `     ",
"        R.u.S.T.U.V.W.X.Y.Z.`. +.+++@+#+$+%+L.&+*+=+h -+f ;+    ",
"      >+,+t.'+)+!+~+{+]+^+/+(+_+:+<+[+}+|+1+2+3+4+5+6+          ",
"      7+8+t.9+0+a+b+c+d+e+f+g+h+i+j+k+l+m+n+o+p+q+r+            ",
"      s+t+u+v+w+x+y+z+A+B+C+D+E+F+G+H+I+J+K+L+M+N+O+            ",
"        v.P+Q+R+S+T+U+V+W+X+Y+Z+`+ @.@+@@@#@$@%@&@              ",
"        *@=@-@;@>@,@'@n.)@!@~@{@]@^@/@(@_@t+:@<@                ",
"            [@}@|@$@t.t.1@t.t.n.2@3@4@t+5@6@7@                  ",
"                8@7+9@0@1@t.t.1@a@b@c@d@e@                      ",
"                      f@g@h@i@j@k@l@                            ",
"                                                                ",
"                                                                ",
"                                                                ",
"                                                                "};
